<svg width="37" height="38" viewBox="0 0 37 38" fill="none" xmlns="http://www.w3.org/2000/svg">
<g filter="url(#filter0_d_40_31)">
<path d="M24.6103 28.3537C24.6103 29.0091 24.7195 29.5552 24.7195 30.1014C24.7195 33.5969 22.3164 36 18.9302 36C15.4347 36 13.1408 33.5969 13.1408 29.7737C13.1408 29.2275 13.1408 29.2275 13.1408 29.0091V28.3537C11.2839 29.6645 10.0823 30.1014 8.44379 30.1014C5.4945 30.1014 2.76367 27.2614 2.76367 24.0936C2.76367 21.7997 4.40217 19.8335 6.8053 18.7412L7.35146 18.5227C4.29294 16.9934 2.76367 15.2457 2.76367 12.8426C2.76367 9.56559 5.27603 6.83476 8.44379 6.83476C9.75459 6.83476 11.3931 7.49016 12.5947 8.36403L13.1408 8.58249C13.1408 7.9271 13.0316 7.38093 13.0316 6.944C13.0316 3.44854 15.4347 1.04541 18.8209 1.04541C22.3164 1.04541 24.6103 3.44854 24.6103 7.2717V8.03633L24.5011 8.58249C26.358 7.2717 27.5596 6.83476 29.1981 6.83476C32.1474 6.83476 34.8782 9.67482 34.8782 12.8426C34.8782 15.1365 33.2397 17.1027 30.8366 18.195L30.2904 18.5227C33.3489 20.052 34.8782 21.7997 34.8782 24.2028C34.8782 27.4798 32.3658 30.2106 29.1981 30.2106C27.8873 30.2106 26.1396 29.6645 25.0472 28.6814L24.6103 28.3537ZM21.661 22.4551C24.3918 26.3875 26.9042 28.3537 29.1981 28.3537C31.1643 28.3537 32.912 26.3875 32.912 24.2028C32.912 21.3628 29.5258 19.5058 23.6272 19.0689V18.0858C29.635 17.5396 32.912 15.7919 32.912 12.9518C32.912 10.7672 31.1643 8.80096 29.1981 8.80096C26.9042 8.80096 24.3918 10.7672 21.661 14.6995L20.6779 14.1534C21.9887 11.4226 22.6441 9.12866 22.6441 7.2717C22.6441 4.54087 21.1148 3.01161 18.7117 3.01161C16.3086 3.01161 14.7793 4.6501 14.7793 7.2717C14.7793 9.23789 15.4347 11.4226 16.7455 14.2626L15.7624 14.8088C13.3593 10.9856 10.7377 9.01943 8.44379 9.01943C6.4776 9.01943 4.72987 10.9856 4.72987 13.1703C4.72987 16.0103 8.00686 17.8673 14.0147 18.3042V19.2873C8.11609 19.8335 4.72987 21.5812 4.72987 24.4213C4.72987 26.606 6.4776 28.5722 8.44379 28.5722C10.7377 28.5722 13.25 26.606 15.9809 22.6736L16.964 23.2197C15.6532 26.0598 14.9978 28.3537 14.9978 30.2106C14.9978 32.723 16.527 34.4707 18.9302 34.4707C21.3333 34.4707 22.8626 32.8322 22.8626 30.2106C22.8626 28.3537 22.2072 26.0598 20.8964 23.2197L21.661 22.4551Z" fill="#C1282D"/>
</g>
<defs>
<filter id="filter0_d_40_31" x="0.763672" y="-0.95459" width="36.1147" height="38.9546" filterUnits="userSpaceOnUse" color-interpolation-filters="sRGB">
<feFlood flood-opacity="0" result="BackgroundImageFix"/>
<feColorMatrix in="SourceAlpha" type="matrix" values="0 0 0 0 0 0 0 0 0 0 0 0 0 0 0 0 0 0 127 0" result="hardAlpha"/>
<feOffset/>
<feGaussianBlur stdDeviation="1"/>
<feComposite in2="hardAlpha" operator="out"/>
<feColorMatrix type="matrix" values="0 0 0 0 0.756863 0 0 0 0 0.156863 0 0 0 0 0.176471 0 0 0 1 0"/>
<feBlend mode="normal" in2="BackgroundImageFix" result="effect1_dropShadow_40_31"/>
<feBlend mode="normal" in="SourceGraphic" in2="effect1_dropShadow_40_31" result="shape"/>
</filter>
</defs>
</svg>
